<svg width="136" height="136" viewBox="0 0 136 136" fill="none" xmlns="http://www.w3.org/2000/svg">
<g filter="url(#filter0_d_28_428)">
<g clip-path="url(#clip0_28_428)">
<path fill-rule="evenodd" clip-rule="evenodd" d="M107.111 120.889C111.826 120.889 116.348 119.016 119.682 115.682C123.016 112.348 124.889 107.826 124.889 103.111C124.889 98.3962 123.016 93.8743 119.682 90.5403C116.348 87.2064 111.826 85.3333 107.111 85.3333C102.396 85.3333 97.8742 87.2064 94.5403 90.5403C91.2063 93.8743 89.3333 98.3962 89.3333 103.111C89.3333 107.826 91.2063 112.348 94.5403 115.682C97.8742 119.016 102.396 120.889 107.111 120.889ZM107.111 128C113.712 128 120.043 125.378 124.71 120.71C129.378 116.043 132 109.712 132 103.111C132 96.5102 129.378 90.1796 124.71 85.512C120.043 80.8444 113.712 78.2222 107.111 78.2222C100.51 78.2222 94.1795 80.8444 89.512 85.512C84.8444 90.1796 82.2222 96.5102 82.2222 103.111C82.2222 109.712 84.8444 116.043 89.512 120.71C94.1795 125.378 100.51 128 107.111 128Z" fill="#43B97F"/>
<path fill-rule="evenodd" clip-rule="evenodd" d="M107.111 90.6667C108.054 90.6667 108.958 91.0413 109.625 91.7081C110.292 92.3749 110.667 93.2792 110.667 94.2222V101.639L113.18 104.153C113.828 104.823 114.186 105.722 114.178 106.654C114.17 107.586 113.796 108.478 113.137 109.137C112.478 109.796 111.586 110.17 110.654 110.178C109.722 110.186 108.823 109.828 108.153 109.18L103.555 104.583V94.2222C103.555 93.2792 103.93 92.3749 104.597 91.7081C105.264 91.0413 106.168 90.6667 107.111 90.6667ZM32.4444 60.4444H25.3333V67.5555H32.4444V60.4444ZM25.3333 53.3333C23.4473 53.3333 21.6386 54.0825 20.305 55.4161C18.9714 56.7497 18.2222 58.5585 18.2222 60.4444V67.5555C18.2222 69.4415 18.9714 71.2503 20.305 72.5839C21.6386 73.9175 23.4473 74.6667 25.3333 74.6667H32.4444C34.3304 74.6667 36.1391 73.9175 37.4727 72.5839C38.8063 71.2503 39.5555 69.4415 39.5555 67.5555V60.4444C39.5555 58.5585 38.8063 56.7497 37.4727 55.4161C36.1391 54.0825 34.3304 53.3333 32.4444 53.3333H25.3333ZM60.8888 60.4444H53.7777V67.5555H60.8888V60.4444ZM53.7777 53.3333C51.8917 53.3333 50.083 54.0825 48.7494 55.4161C47.4158 56.7497 46.6666 58.5585 46.6666 60.4444V67.5555C46.6666 69.4415 47.4158 71.2503 48.7494 72.5839C50.083 73.9175 51.8917 74.6667 53.7777 74.6667H60.8888C62.7748 74.6667 64.5836 73.9175 65.9171 72.5839C67.2507 71.2503 67.9999 69.4415 67.9999 67.5555V60.4444C67.9999 58.5585 67.2507 56.7497 65.9171 55.4161C64.5836 54.0825 62.7748 53.3333 60.8888 53.3333H53.7777ZM89.3333 60.4444H82.2222V67.5555H89.3333V60.4444ZM82.2222 53.3333C80.3362 53.3333 78.5274 54.0825 77.1939 55.4161C75.8603 56.7497 75.1111 58.5585 75.1111 60.4444V67.5555C75.1111 69.4415 75.8603 71.2503 77.1939 72.5839C78.5274 73.9175 80.3362 74.6667 82.2222 74.6667H89.3333C91.2193 74.6667 93.028 73.9175 94.3616 72.5839C95.6952 71.2503 96.4444 69.4415 96.4444 67.5555V60.4444C96.4444 58.5585 95.6952 56.7497 94.3616 55.4161C93.028 54.0825 91.2193 53.3333 89.3333 53.3333H82.2222ZM32.4444 88.8889H25.3333V96H32.4444V88.8889ZM25.3333 81.7778C23.4473 81.7778 21.6386 82.527 20.305 83.8606C18.9714 85.1942 18.2222 87.0029 18.2222 88.8889V96C18.2222 97.886 18.9714 99.6947 20.305 101.028C21.6386 102.362 23.4473 103.111 25.3333 103.111H32.4444C34.3304 103.111 36.1391 102.362 37.4727 101.028C38.8063 99.6947 39.5555 97.886 39.5555 96V88.8889C39.5555 87.0029 38.8063 85.1942 37.4727 83.8606C36.1391 82.527 34.3304 81.7778 32.4444 81.7778H25.3333ZM60.8888 88.8889H53.7777V96H60.8888V88.8889ZM53.7777 81.7778C51.8917 81.7778 50.083 82.527 48.7494 83.8606C47.4158 85.1942 46.6666 87.0029 46.6666 88.8889V96C46.6666 97.886 47.4158 99.6947 48.7494 101.028C50.083 102.362 51.8917 103.111 53.7777 103.111H60.8888C62.7748 103.111 64.5836 102.362 65.9171 101.028C67.2507 99.6947 67.9999 97.886 67.9999 96V88.8889C67.9999 87.0029 67.2507 85.1942 65.9171 83.8606C64.5836 82.527 62.7748 81.7778 60.8888 81.7778H53.7777Z" fill="#43B97F"/>
<path fill-rule="evenodd" clip-rule="evenodd" d="M11.1111 21.3333C11.1111 20.3903 11.4857 19.486 12.1525 18.8192C12.8193 18.1524 13.7237 17.7778 14.6667 17.7778H32.4444V10.6667H14.6667C11.8377 10.6667 9.12458 11.7905 7.12419 13.7909C5.12381 15.7913 4 18.5044 4 21.3333V106.667C4 109.496 5.12381 112.209 7.12419 114.209C9.12458 116.21 11.8377 117.333 14.6667 117.333H86.6844C85.1682 115.161 84.0098 112.761 83.2533 110.222H14.6667C13.7237 110.222 12.8193 109.848 12.1525 109.181C11.4857 108.514 11.1111 107.61 11.1111 106.667V21.3333ZM103.556 78.4711C105.914 78.1338 108.308 78.1338 110.667 78.4711V21.3333C110.667 18.5044 109.543 15.7913 107.542 13.7909C105.542 11.7905 102.829 10.6667 100 10.6667H89.3333V17.7778H100C100.943 17.7778 101.847 18.1524 102.514 18.8192C103.181 19.486 103.556 20.3903 103.556 21.3333V78.4711ZM39.5556 17.7778H77.1129V10.6667H39.5556V17.7778Z" fill="#43B97F"/>
<path fill-rule="evenodd" clip-rule="evenodd" d="M110.667 42.6667H11.1113V35.5556H110.667V42.6667Z" fill="#43B97F"/>
<path d="M25.3335 3.55556C25.3335 2.61256 25.7081 1.70819 26.3749 1.0414C27.0417 0.374603 27.9461 0 28.8891 0C29.832 0 30.7364 0.374603 31.4032 1.0414C32.07 1.70819 32.4446 2.61256 32.4446 3.55556V21.3333C32.4446 22.2763 32.07 23.1807 31.4032 23.8475C30.7364 24.5143 29.832 24.8889 28.8891 24.8889C27.9461 24.8889 27.0417 24.5143 26.3749 23.8475C25.7081 23.1807 25.3335 22.2763 25.3335 21.3333V3.55556ZM75.1113 3.55556C75.1113 2.61256 75.4859 1.70819 76.1527 1.0414C76.8195 0.374603 77.7238 0 78.6668 0C79.6098 0 80.5142 0.374603 81.181 1.0414C81.8478 1.70819 82.2224 2.61256 82.2224 3.55556V21.3333C82.2224 22.2763 81.8478 23.1807 81.181 23.8475C80.5142 24.5143 79.6098 24.8889 78.6668 24.8889C77.7238 24.8889 76.8195 24.5143 76.1527 23.8475C75.4859 23.1807 75.1113 22.2763 75.1113 21.3333V3.55556Z" fill="#43B97F"/>
</g>
</g>
<defs>
<filter id="filter0_d_28_428" x="0" y="0" width="136" height="136" filterUnits="userSpaceOnUse" color-interpolation-filters="sRGB">
<feFlood flood-opacity="0" result="BackgroundImageFix"/>
<feColorMatrix in="SourceAlpha" type="matrix" values="0 0 0 0 0 0 0 0 0 0 0 0 0 0 0 0 0 0 127 0" result="hardAlpha"/>
<feOffset dy="4"/>
<feGaussianBlur stdDeviation="2"/>
<feComposite in2="hardAlpha" operator="out"/>
<feColorMatrix type="matrix" values="0 0 0 0 0 0 0 0 0 0 0 0 0 0 0 0 0 0 0.25 0"/>
<feBlend mode="normal" in2="BackgroundImageFix" result="effect1_dropShadow_28_428"/>
<feBlend mode="normal" in="SourceGraphic" in2="effect1_dropShadow_28_428" result="shape"/>
</filter>
<clipPath id="clip0_28_428">
<rect width="128" height="128" fill="white" transform="translate(4)"/>
</clipPath>
</defs>
</svg>
